<?xml version="1.0" encoding="utf-8"?>
<!DOCTYPE svg PUBLIC "-//W3C//DTD SVG 1.1//EN" "http://www.w3.org/Graphics/SVG/1.1/DTD/svg11.dtd">
<svg version="1.1" xmlns="http://www.w3.org/2000/svg" xmlns:xlink="http://www.w3.org/1999/xlink" x="0px" y="0px" width="1024px" height="1024px" viewBox="0 0 1024 1024" enable-background="new 0 0 1024 1024" xml:space="preserve">
<metadata> Free Icon Download -- www.onlinewebfonts.com </metadata>

  <path d="M961 502c0-55.4-44.4-100.4-99-100.4-26 0-49.4 10-67.2 26.6-64.8-45.6-152.2-75.6-249.8-81.2l43.8-146.4 134.2 27c4.6 45.4 42.4 80.8 88.6 80.8 0.2 0 0.2 0 0.4 0 0.2 0 0.2 0 0.4 0 49.2 0 89-40.4 89-90.2S861.4 128 812.2 128c-0.2 0-0.2 0-0.4 0 0 0-0.2 0-0.2 0-34.4 0-64 19.6-79 48.6l-179.4-36-61.6 206-5 0.2c-100.6 4.4-191 34.8-257.4 81.4-17.6-16.6-41.2-26.6-67.2-26.6-54.6 0-99 45-99 100.4 0 39.2 22 73 54.2 89.6-1.6 9.8-2.4 19.6-2.4 29.6C115 772.8 292.8 896 512 896s397-123.2 397-275c0-10-0.8-19.8-2.2-29.6C939 574.8 961 541 961 502zM131.6 542.2c-13.2-9-21.8-24.2-21.8-41.6 0-27.6 22.2-50.2 49.4-50.2 11.2 0 21.6 3.8 30 10.2C162.2 484.4 142.2 512 131.6 542.2zM778.6 218.2c0-18.4 14.8-33.6 33-33.6s33 15 33 33.6c0 18.4-14.8 33.6-33 33.6S778.6 236.8 778.6 218.2zM317 576.8c0-35.2 28.4-63.6 63.6-63.6s63.6 28.4 63.6 63.6c0 35.2-28.4 63.6-63.6 63.6S317 612 317 576.8zM512 800c-95.2-0.4-152-57-154.4-59.4l25.2-24.8c0.4 0.4 47.4 48.4 129.2 48.8 80.6-0.4 128.4-48.4 129-48.8l25.2 24.8C663.8 743 607.2 799.6 512 800zM644.6 640.4c-35.2 0-63.6-28.4-63.6-63.6 0-35.2 28.4-63.6 63.6-63.6s63.6 28.4 63.6 63.6C708.2 612 679.6 640.4 644.6 640.4zM892.8 543c-10.8-30.6-31.2-58.8-58.6-82.8 8.4-6.6 19-10.4 30.4-10.4 27.8 0 50.2 22.8 50.2 51C915 518.4 906.2 533.8 892.8 543z" />


</svg>