<?xml version="1.0" encoding="utf-8"?>
<!DOCTYPE svg PUBLIC "-//W3C//DTD SVG 1.1//EN" "http://www.w3.org/Graphics/SVG/1.1/DTD/svg11.dtd">
<svg version="1.1" xmlns="http://www.w3.org/2000/svg" xmlns:xlink="http://www.w3.org/1999/xlink" x="0px" y="0px" width="1024px" height="1024px" viewBox="0 0 1024 1024" enable-background="new 0 0 1024 1024" xml:space="preserve">
<metadata> Free Icon Download -- www.onlinewebfonts.com </metadata>

  <path d="M904.045714 332.580571q0 57.709714-40.886857 98.596571t-98.596571 40.886857-98.596571-40.886857-40.886857-98.596571 40.886857-98.596571 98.596571-40.886857 98.596571 40.886857 40.886857 98.596571zM464.091429 756.589714q0-59.465143-41.691429-101.156571t-101.156571-41.691429q-15.433143 0-30.866286 3.437714l59.465143 23.990857q44.032 17.700571 62.537143 60.854857t0.877714 86.601143q-17.700571 44.032-61.147429 62.317714t-86.820571 0.585143q-11.995429-4.534857-35.401143-13.970286t-34.889143-13.970286q18.285714 34.304 52.004571 55.149714t74.313143 20.845714q59.465143 0 101.156571-41.691429t41.691429-101.156571zM938.349714 333.165714q0-71.972571-51.126857-123.172571t-123.172571-51.126857q-72.557714 0-123.684571 51.126857t-51.126857 123.172571q0 72.557714 51.126857 123.465143t123.684571 50.834286q71.972571 0 123.172571-50.834286t51.126857-123.465143zM1024.073143 333.165714q0 108.032-76.288 184.027429t-183.734857 75.995429l-249.709714 182.272q-6.875429 73.728-62.317714 124.562286t-130.852571 50.834286q-69.12 0-122.294857-43.446857t-67.437714-109.714286l-131.437714-52.589714 0-245.174857 222.281143 89.746286q45.129143-27.428571 98.889143-27.428571 7.460571 0 19.968 1.170286l162.304-232.594286q1.170286-106.861714 77.458286-182.272t183.149714-75.410286q107.446857 0 183.734857 76.288t76.288 183.734857z" />


</svg>