<?xml version="1.0" encoding="utf-8"?>
<!DOCTYPE svg PUBLIC "-//W3C//DTD SVG 1.1//EN" "http://www.w3.org/Graphics/SVG/1.1/DTD/svg11.dtd">
<svg version="1.1" xmlns="http://www.w3.org/2000/svg" xmlns:xlink="http://www.w3.org/1999/xlink" x="0px" y="0px" width="1024px" height="1024px" viewBox="0 0 1024 1024" enable-background="new 0 0 1024 1024" xml:space="preserve">
<metadata> Free Icon Download -- www.onlinewebfonts.com </metadata>

  <path d="M510.538719 296.747541c24.215518 0 48.059576-0.74292 71.533196-2.231831-14.793938-82.675978-38.235836-160.604838-69.826322-231.061516-0.147356 0-0.293689-0.002047-0.440022-0.00307-31.622208 70.52524-55.079456 148.535965-69.871347 231.301993C464.444914 296.083415 487.307621 296.747541 510.538719 296.747541z" />
<path d="M415.70484 262.9856c15.529695-76.600609 31.591509-133.288702 60.744479-198.22055-128.393205 9.827833-241.579057 74.001411-316.597635 169.561837 77.882811 31.205723 161.218822 50.14405 250.287393 58.072627C411.874605 282.539958 413.727813 272.733615 415.70484 262.9856z" />
<path d="M159.845545 234.333026c-0.054235 0.069585-0.106424 0.140193-0.160659 0.208754l0.005117 0.008186L159.845545 234.333026z" />
<path d="M391.638725 493.694075c0.683569-57.742099 5.194302-114.728998 13.45443-170.216753-93.920066-9.06547-183.835935-30.204929-264.352737-62.46568l0.078795-0.110517c-0.069585-0.031722-0.140193-0.063445-0.208754-0.097214-45.027519 66.952878-72.414263 146.93142-75.479065 232.890164l48.119951 0L391.638725 493.694075z" />
<path d="M613.840456 292.016797c88.11178-8.274454 170.789805-27.497261 247.777223-58.305941C786.93577 138.92098 674.641217 75.1557 547.240619 64.907289c28.92682 64.597227 45.639456 121.79902 61.10366 198.078311C610.2947 272.606725 612.124372 282.287201 613.840456 292.016797z" />
<path d="M880.339066 261.010619c-79.68076 31.92613-168.562067 52.967352-261.421988 62.188364 8.286734 55.57576 12.808724 112.657826 13.493316 170.496116L956.836321 493.695099c-3.016707-86.141916-30.468942-166.060083-75.617212-233.069243C880.783181 260.813121 880.783181 260.813121 880.339066 261.010619L880.339066 261.010619z" />
<path d="M510.977717 691.282223c25.524327 0 50.90232 0.8913 76.04086 2.63399 8.269337-54.516638 12.856819-110.902856 13.583366-168.429037l-177.154769 0c0.725524 57.473993 5.304819 113.808022 13.55983 168.278611C461.467093 692.117241 486.154355 691.282223 510.977717 691.282223z" />
<path d="M587.234495 325.867766c-25.352411 1.76725-50.950416 2.672876-76.6968 2.672876-24.750707 0-49.366338-0.825808-73.756841-2.460028-8.15268 54.267974-12.662391 110.3779-13.349029 167.613462l177.183422 0C599.928608 436.383812 595.407642 380.202255 587.234495 325.867766z" />
<path d="M405.318282 696.381357c-8.363482-55.697533-12.945847-112.913653-13.668301-170.894182L65.11809 525.487176c3.025916 86.408999 30.633694 166.559457 76.031651 233.695506 0.225127-0.095167 0.450255-0.187265 0.676405-0.280386l-0.062422-0.090051C222.046189 726.594473 311.685765 705.467293 405.318282 696.381357z" />
<path d="M410.413324 727.47247c-88.937588 7.982812-172.256202 26.990724-249.942539 58.165748 75.092255 95.215572 188.147124 159.097508 316.336692 168.806637-29.151947-64.931848-45.573965-122.465193-61.102636-199.064778C413.82912 746.128365 412.072103 736.822418 410.413324 727.47247z" />
<path d="M618.700137 696.577832c92.888574 9.195429 181.799556 30.253024 261.493619 62.235436l-0.039909 0.057305c0.239454 0.077771 0.473791 0.156566 0.703011 0.237407 45.367257-67.1207 72.954569-147.244552 75.979462-233.620805L632.399137 525.487176C631.67566 583.536266 627.082038 640.817877 618.700137 696.577832z" />
<path d="M861.501022 785.616728c0.008186-0.010233 0.016373-0.021489 0.024559-0.031722-0.001023 0-0.001023-0.001023-0.002047-0.001023L861.501022 785.616728z" />
<path d="M608.345302 755.379053c-15.497972 76.438926-32.431643 134.157489-61.473073 198.924585 127.477346-10.149151 239.85581-73.877591 314.610374-168.665421-77.086679-30.934546-159.715585-49.894364-247.880577-57.984622C611.95348 736.943169 610.208742 746.18874 608.345302 755.379053z" />
<path d="M510.977717 723.075323c-23.279193 0-46.203298 0.672312-68.778456 2.020006 14.832823 82.362846 38.254256 159.995971 69.77311 230.199892l0.105401 0c31.502481-70.169129 54.91675-147.761322 69.750597-230.080166C558.584991 723.782428 534.969131 723.075323 510.977717 723.075323z" />
<path d="M511.974417 63.067384l-0.9967 0.378623c0.276293 0 0.551562 0.005117 0.827855 0.005117C511.861854 63.324234 511.917112 63.195298 511.974417 63.067384z" />
<path d="M476.807477 954.443831 476.813616 954.444854 476.807477 954.443831Z" />
<path d="M476.449319 64.763003C476.449319 64.764026 476.449319 64.764026 476.449319 64.763003c0.007163 0 0.014326 0 0.022513-0.001023L476.449319 64.763003z" />
<path d="M861.8469 233.620805c-0.076748 0.029676-0.152473 0.059352-0.228197 0.090051 0.027629 0.034792 0.055259 0.070608 0.082888 0.106424C861.749686 233.751788 861.797781 233.686297 861.8469 233.620805z" />
<path d="M159.850661 234.325863 159.845545 234.333026 159.850661 234.325863Z" />
<path d="M160.466692 785.635147l0.004093 0 0 0.00307-0.004093 0 0-0.00307Z" />
<path d="M861.485673 785.639241l0.016373-0.023536c-0.00614 0.007163-0.01228 0.01535-0.017396 0.022513C861.483626 785.639241 861.484649 785.639241 861.485673 785.639241z" />
<path d="M957.082938 493.694075l-0.245593 0c0.00307 0.073678 0.00307 0.148379 0.00614 0.222057C956.922279 493.842455 957.002097 493.768777 957.082938 493.694075z" />
<path d="M956.836321 525.487176l0.2415 0c-0.077771-0.102331-0.155543-0.206708-0.233314-0.311085C956.841438 525.279445 956.840414 525.383822 956.836321 525.487176z" />


</svg>